<svg xmlns="http://www.w3.org/2000/svg" viewBox="0 0 1024 1024" role="img" aria-labelledby="logo-mark-title logo-mark-desc">
  <title id="logo-mark-title">Midwest Underground Logo Mark</title>
  <desc id="logo-mark-desc">The MU monogram combining the letters M and U, representing Midwest Underground of Minnesota Inc.</desc>

  <g fill="#343D46">
    <!-- Outer M shape with angled cuts -->
    <path d="M 118 294 L 260 294 L 260 400 L 260 294 L 382 294 L 512 498 L 642 294 L 764 294 L 764 400 L 764 294 L 906 294 L 906 658 L 764 658 L 764 520 L 664 658 L 360 658 L 260 520 L 260 658 L 118 658 Z"/>

    <!-- U shape with rounded bottom -->
    <path d="M 118 708 L 260 708 L 260 850 C 260 880 280 920 340 940 C 400 960 440 960 512 960 C 584 960 624 960 684 940 C 744 920 764 880 764 850 L 764 708 L 906 708 L 906 850 C 906 920 880 980 820 1010 C 760 1040 680 1060 512 1060 C 344 1060 264 1040 204 1010 C 144 980 118 920 118 850 Z" transform="translate(0, -50)"/>
  </g>
</svg>
